<svg width="48" height="48" viewBox="0 0 48 48" fill="none" xmlns="http://www.w3.org/2000/svg">
<path d="M39.9038 36H42C43.1046 36 44 35.1046 44 34V26C44 24.8954 43.1046 24 42 24H31C29.8954 24 29 24.8954 29 26V29.0769" stroke="#4124F1" stroke-width="2" stroke-linecap="round" stroke-linejoin="round"/>
<path d="M24 40L24 31C24 30.4477 24.4477 30 25 30L38 30C38.5523 30 39 30.4477 39 31L39 35.5L39 40C39 40.5523 38.5523 41 38 41L31.5 41L25 41C24.4477 41 24 40.5523 24 40Z" stroke="#4124F1" stroke-width="2" stroke-linecap="round" stroke-linejoin="round"/>
<path d="M4 15V19" stroke="#4124F1" stroke-width="2" stroke-linecap="round"/>
<path d="M32 15L32 19" stroke="#4124F1" stroke-width="2" stroke-linecap="round"/>
<path d="M11 10L11 24" stroke="#2AD4D9" stroke-width="2" stroke-linecap="round"/>
<path d="M25 10L25 24" stroke="#2AD4D9" stroke-width="2" stroke-linecap="round"/>
<path d="M18 6L18 28" stroke="#4124F1" stroke-width="2" stroke-linecap="round"/>
</svg>
